<svg width="34" height="32" viewBox="0 0 34 32" fill="none" xmlns="http://www.w3.org/2000/svg">
<path d="M29.3457 28.8464C26.5345 32.1968 21.5393 32.6336 18.1889 29.8224C14.8377 27.0112 14.4009 22.016 17.2129 18.6648C20.0241 15.3144 25.0193 14.8776 28.3697 17.6888C31.7201 20.5008 32.1569 25.496 29.3457 28.8464Z" fill="#1AD3BB"/>
<path d="M17.1071 13.0103C14.2959 16.3607 9.30073 16.7975 5.95033 13.9863C2.59993 11.1751 2.16233 6.1799 4.97433 2.8295C7.78553 -0.521701 12.7807 -0.958501 16.1311 1.8535C19.4815 4.6647 19.9183 9.6599 17.1071 13.0103Z" fill="#FBB945"/>
<path d="M26.472 1.07195C27.5976 -0.0528474 29.16 -0.313648 29.9632 0.489552L33.6 4.12635L7.128 30.5984C6.0024 31.7232 4.44 31.984 3.636 31.1808L0 27.5448L26.472 1.07195Z" fill="#985184"/>
<path d="M21.7398 15.9852L15.5078 22.2164C15.7658 20.9067 16.3521 19.6839 17.2118 18.6628C18.3701 17.278 19.9684 16.3334 21.7398 15.9852Z" fill="#005E7A"/>
<path d="M11.7422 15.8052C12.7766 15.7146 13.7831 15.4207 14.7038 14.9405C15.6245 14.4603 16.4414 13.8032 17.1078 13.0068C18.1524 11.7659 18.7888 10.233 18.9302 8.61719L11.7422 15.8052Z" fill="#953B24"/>
</svg>
