<svg width="204" height="204" viewBox="0 0 204 204" fill="none" xmlns="http://www.w3.org/2000/svg">
<path d="M62.2812 89.1134V121.366C62.2812 132.594 71.405 141.718 82.633 141.718H121.336C132.564 141.718 141.688 132.594 141.688 121.366V89.1134C141.688 77.8855 132.564 68.7617 121.336 68.7617H82.633C71.405 68.7617 62.2812 77.8855 62.2812 89.1134ZM133.238 89.1134V121.366C133.238 127.942 127.912 133.267 121.336 133.267H82.633C76.0574 133.267 70.7318 127.942 70.7318 121.366V89.1134C70.7318 82.5378 76.0574 77.2123 82.633 77.2123H121.336C127.912 77.2123 133.238 82.5378 133.238 89.1134Z" fill="#00BFBB" stroke="#00BFBB" stroke-width="2"/>
<path d="M125.529 113.304H120.691V97.1772H125.529V90.7266H109.402V97.1772H114.24V113.304H109.402V119.754H125.529V113.304ZM85.0513 119.754L86.4705 113.304H94.9207L96.3398 119.754H102.952L97.0494 93.2424C96.8894 92.5249 96.4885 91.884 95.9134 91.4262C95.3383 90.9685 94.6237 90.7216 93.8886 90.7266H87.4381C85.9222 90.7266 84.6321 91.791 84.2773 93.2424L78.375 119.754H84.9868H85.0513ZM90.0828 97.1772H91.3729L93.5338 106.853H87.9541L90.115 97.1772H90.0828Z" fill="#00BFBB"/>
<path d="M155.832 187.461L156.678 186.926L156.143 186.08L152.692 180.63L152.158 179.786L151.313 180.319C136.54 189.641 119.422 194.576 101.953 194.549H101.952C50.9316 194.549 9.41832 153.036 9.41832 102.016C9.41832 80.794 16.7936 60.2037 30.0106 43.8617L29.2923 50.1365L29.1786 51.129L30.1709 51.2437L36.5893 51.9855L37.5827 52.1003L37.6975 51.1068L39.9545 31.5678C40.0406 30.8913 39.9578 30.2041 39.7135 29.5673C39.4702 28.9334 39.0744 28.3694 38.5612 27.9251C37.5283 26.9858 36.0985 26.6662 34.781 26.9544L34.7723 26.9563L34.7637 26.9583L15.6055 31.506L14.6339 31.7366L14.8632 32.7085L16.3468 38.9979L16.5773 39.9751L17.5536 39.7406L23.6155 38.2849C9.03187 56.2933 1.03074 78.7809 1 102.015V102.016C1 157.689 46.3114 203 101.984 203C121.104 203 139.738 197.625 155.832 187.461ZM194.549 102.016C194.549 123.238 187.174 143.829 173.957 160.171L174.675 153.896L174.789 152.903L173.797 152.789L167.378 152.047L166.385 151.932L166.27 152.925L164.014 172.461C164.014 172.463 164.013 172.464 164.013 172.466C163.847 173.81 164.345 175.209 165.417 176.116C166.181 176.791 167.188 177.165 168.199 177.165C168.212 177.165 168.226 177.166 168.241 177.166C168.452 177.166 168.848 177.168 169.239 177.026L188.33 172.494L189.302 172.263L189.072 171.291L187.589 165.002L187.358 164.025L186.382 164.259L180.329 165.713C194.842 147.848 203 125.261 203 101.984C203 46.3114 157.689 1 102.016 1H101.602L101.569 1.03309C82.5623 1.11018 64.1131 6.48053 48.1359 16.5714L47.2895 17.106L47.825 17.9518L51.2761 23.4025L51.8106 24.2468L52.6552 23.7129C67.3947 14.397 84.4645 9.48283 102.016 9.48283C153.036 9.48283 194.549 50.9961 194.549 102.016Z" fill="#00BFBB" stroke="#00BFBB" stroke-width="2"/>
<path d="M142.976 40.7344H131.946C130.172 40.7344 128.721 42.1858 128.721 43.9597V46.2819C127.366 46.7334 126.076 47.2495 124.786 47.8945L123.141 46.2496C122.842 45.9506 122.488 45.7134 122.098 45.5516C121.708 45.3897 121.289 45.3064 120.867 45.3064C120.445 45.3064 120.026 45.3897 119.636 45.5516C119.246 45.7134 118.892 45.9506 118.593 46.2496L110.756 54.0871C110.457 54.3854 110.22 54.7399 110.058 55.13C109.896 55.5202 109.812 55.9385 109.812 56.3609C109.812 56.7833 109.896 57.2016 110.058 57.5917C110.22 57.9819 110.457 58.3363 110.756 58.6347L112.401 60.2796C111.691 61.6987 111.078 63.2146 110.562 64.8918L116.722 66.7947C117.174 65.3111 117.69 64.0532 118.303 62.8921C119.432 60.7957 119.109 58.1832 117.593 56.3448L120.915 53.0227C122.754 54.5386 125.366 54.8611 127.463 53.7645C128.946 52.9905 130.462 52.4099 132.204 51.9584C134.01 51.4101 135.236 49.7974 135.236 47.9268V47.1204H139.816V47.8623C139.816 49.8619 141.235 51.6036 143.041 51.9906C144.621 52.4099 146.169 52.9905 147.588 53.7645C149.685 54.8934 152.297 54.5709 154.136 53.055L157.458 56.377C155.942 58.2154 155.619 60.8279 156.716 62.8921C157.329 64.0855 157.845 65.3111 158.232 66.5044C158.941 68.8266 160.973 70.4393 163.36 70.6328V75.2449C160.973 75.4385 158.974 77.0188 158.2 79.4056C157.877 80.4699 157.426 81.5988 156.748 82.9856C155.619 85.0821 155.942 87.6945 157.458 89.533L154.136 92.855C152.297 91.3391 149.685 91.0166 147.621 92.1132C146.427 92.726 145.202 93.242 143.976 93.6291L145.911 99.7894C147.33 99.3378 148.75 98.7573 150.201 98.0477L151.878 99.6926C152.491 100.338 153.329 100.628 154.168 100.628C155.007 100.628 155.813 100.305 156.458 99.6926L164.295 91.8552C164.594 91.5568 164.832 91.2024 164.994 90.8122C165.155 90.422 165.239 90.0037 165.239 89.5813C165.239 89.1589 165.155 88.7407 164.994 88.3505C164.832 87.9603 164.594 87.6059 164.295 87.3075L162.651 85.6626C163.392 84.1467 163.908 82.8889 164.263 81.7278H166.585C168.359 81.7278 169.811 80.2764 169.811 78.5025V67.472C169.811 65.6981 168.359 64.2467 166.585 64.2467H164.263C163.812 62.9243 163.296 61.6342 162.651 60.3119L164.295 58.667C164.594 58.3686 164.832 58.0142 164.994 57.624C165.155 57.2338 165.239 56.8155 165.239 56.3931C165.239 55.9707 165.155 55.5525 164.994 55.1623C164.832 54.7721 164.594 54.4177 164.295 54.1193L156.458 46.2819C156.16 45.9829 155.805 45.7457 155.415 45.5838C155.025 45.422 154.607 45.3387 154.184 45.3387C153.762 45.3387 153.344 45.422 152.953 45.5838C152.563 45.7457 152.209 45.9829 151.91 46.2819L150.265 47.9268C149.008 47.2817 147.717 46.7657 146.331 46.3141V43.9919C146.331 42.218 144.879 40.7666 143.105 40.7666L142.976 40.7344Z" fill="#00BFBB"/>
<path d="M142.947 80.9229L146.494 86.3091C150.945 83.3741 153.59 78.4072 153.59 73.021C153.59 64.1192 146.365 56.8945 137.464 56.8945C132.077 56.8945 127.11 59.5393 124.175 63.9902L129.562 67.538C131.303 64.9255 134.271 63.3451 137.496 63.3451C142.818 63.3451 147.172 67.6992 147.172 73.021C147.172 76.2463 145.591 79.2135 142.979 80.9552L142.947 80.9229ZM43.9303 145.009H45.2204C45.4784 145.783 45.801 146.525 46.1235 147.235L45.2204 148.138C44.9214 148.436 44.6842 148.791 44.5224 149.181C44.3605 149.571 44.2772 149.989 44.2772 150.412C44.2772 150.834 44.3605 151.252 44.5224 151.643C44.6842 152.033 44.9214 152.387 45.2204 152.686L51.284 158.749C51.8968 159.362 52.7031 159.684 53.5739 159.684C54.4447 159.684 55.2511 159.33 55.8639 158.749L56.7992 157.846C57.5088 158.201 58.2828 158.523 59.0247 158.781V160.071C59.0247 161.845 60.476 163.297 62.2499 163.297H70.8292C72.6031 163.297 74.0545 161.845 74.0545 160.071V158.781C74.8286 158.523 75.5704 158.201 76.2799 157.878L77.183 158.781C78.4086 160.007 80.5373 160.007 81.7307 158.781L87.7942 152.718C88.0932 152.419 88.3304 152.065 88.4923 151.675C88.6541 151.285 88.7374 150.866 88.7374 150.444C88.7374 150.022 88.6541 149.603 88.4923 149.213C88.3304 148.823 88.0932 148.469 87.7942 148.17L86.8589 147.235C87.2459 146.461 87.5362 145.719 87.7942 144.977L81.6662 142.913C81.4726 143.526 81.1501 144.203 80.7631 144.977C79.8923 146.687 80.0213 148.751 81.0211 150.331L79.344 152.008C77.7636 151.008 75.6671 150.879 73.9255 151.782C73.1191 152.202 72.2483 152.589 71.2807 152.879C69.4101 153.46 68.0555 155.008 67.6684 156.846H65.314C64.9269 155.008 63.5723 153.46 61.6371 152.847C60.7663 152.589 59.8632 152.234 59.0247 151.75C57.3152 150.879 55.2511 151.008 53.6707 152.008L51.9935 150.331C52.9934 148.751 53.1224 146.654 52.2193 144.88C51.8 144.106 51.413 143.235 51.155 142.268C50.5744 140.397 49.0263 139.043 47.1879 138.656V136.398C48.9295 136.333 50.4776 135.14 50.9614 133.398C51.284 132.14 51.7355 131.044 52.2838 129.98C53.1546 128.27 53.0256 126.206 52.0258 124.626L53.7029 122.948C55.2833 123.98 57.3798 124.077 59.0569 123.206C59.831 122.819 60.5083 122.497 61.1211 122.303L59.0892 116.175C58.3796 116.401 57.6378 116.724 56.8315 117.111L55.8961 116.175C54.6705 114.95 52.5418 114.95 51.3485 116.175L45.2849 122.239C44.9859 122.537 44.7487 122.892 44.5869 123.282C44.425 123.672 44.3417 124.09 44.3417 124.513C44.3417 124.935 44.425 125.353 44.5869 125.744C44.7487 126.134 44.9859 126.488 45.2849 126.786L46.2203 127.722C45.8655 128.431 45.5752 129.173 45.2849 129.947H43.9948C42.2209 129.947 40.7695 131.399 40.7695 133.173V141.752C40.7695 143.526 42.2209 144.977 43.9948 144.977L43.9303 145.009Z" fill="#00BFBB"/>
<path d="M55.2188 137.496C55.2188 143.72 60.2824 148.784 66.5073 148.784C70.0551 148.784 73.4094 147.107 75.5381 144.269L70.3776 140.398C69.9593 140.945 69.4291 141.396 68.8224 141.721C68.2157 142.046 67.5466 142.238 66.8598 142.283C66.173 142.329 65.4845 142.227 64.8402 141.985C64.196 141.742 63.611 141.365 63.1243 140.879C62.6376 140.392 62.2605 139.807 62.0183 139.163C61.776 138.518 61.6742 137.83 61.7197 137.143C61.7652 136.456 61.9569 135.787 62.2819 135.18C62.607 134.574 63.0579 134.044 63.6045 133.625L59.7341 128.465C56.8959 130.594 55.2188 133.98 55.2188 137.496Z" fill="#00BFBB"/>
</svg>
