<svg width="200" height="200" viewBox="0 0 200 200" fill="none" xmlns="http://www.w3.org/2000/svg">
<path d="M178.516 129.471C168.7 129.471 160.408 136.089 157.85 145.096H137.109V122.223H158.286C181.288 122.223 200 103.511 200 80.5094C200 62.0676 187.769 45.8668 170.405 40.5902C165.156 19.573 146.184 4.49922 124.212 4.49922C115.694 4.49922 107.535 6.6957 100.334 10.8922C92.7078 3.91797 82.7082 0 72.2016 0C49.6652 0 31.2457 17.9652 30.5105 40.3254C12.6742 45.3109 0 61.6418 0 80.5094C0 103.511 18.7125 122.223 41.7137 122.223H62.8906V145.096H42.15C39.5926 136.089 31.2996 129.471 21.4844 129.471C9.63789 129.471 0 139.109 0 150.955C0 162.802 9.63789 172.44 21.4844 172.44C31.2996 172.44 39.5922 165.821 42.15 156.815H68.75C71.9859 156.815 74.6094 154.191 74.6094 150.955V122.223H94.1406V157.634C85.134 160.191 78.5156 168.484 78.5156 178.299C78.5156 190.146 88.1535 199.784 100 199.784C111.846 199.784 121.484 190.146 121.484 178.299C121.484 168.484 114.866 160.191 105.859 157.634V122.223H125.391V150.955C125.391 154.191 128.014 156.815 131.25 156.815H157.85C160.407 165.821 168.7 172.44 178.516 172.44C190.362 172.44 200 162.802 200 150.955C200 139.109 190.362 129.471 178.516 129.471ZM21.4844 160.721C16.0996 160.721 11.7188 156.34 11.7188 150.955C11.7188 145.571 16.0996 141.19 21.4844 141.19C26.8691 141.19 31.25 145.571 31.25 150.955C31.25 156.34 26.8691 160.721 21.4844 160.721ZM109.766 178.299C109.766 183.684 105.385 188.065 100 188.065C94.6152 188.065 90.2344 183.684 90.2344 178.299C90.2344 172.914 94.6152 168.534 100 168.534C105.385 168.534 109.766 172.914 109.766 178.299ZM41.7137 110.504C25.1746 110.504 11.7188 97.0488 11.7188 80.5094C11.7188 65.727 22.7371 52.968 37.3477 50.8313C40.4309 50.3805 42.6215 47.5953 42.334 44.493C42.2488 43.5689 42.2062 42.6413 42.2062 41.7133C42.2062 25.1746 55.6621 11.7191 72.2012 11.7191C81.0254 11.7191 89.3469 15.5551 95.0312 22.2434C97.027 24.5914 100.5 24.9922 102.979 23.1609C109.124 18.6187 116.466 16.218 124.211 16.218C142.035 16.218 156.857 29.2957 159.628 46.3078C159.819 47.4826 160.364 48.5713 161.189 49.429C162.015 50.2866 163.082 50.8725 164.248 51.1086C178.174 53.9277 188.281 66.2922 188.281 80.5094C188.281 97.0488 174.825 110.504 158.286 110.504H41.7137ZM178.516 160.721C173.131 160.721 168.75 156.34 168.75 150.955C168.75 145.571 173.131 141.19 178.516 141.19C183.9 141.19 188.281 145.571 188.281 150.955C188.281 156.34 183.9 160.721 178.516 160.721Z" fill="#00BFBB"/>
</svg>
