<svg width="40" height="26" viewBox="0 0 40 26" fill="none" xmlns="http://www.w3.org/2000/svg">
<path d="M36.6968 0C39.5128 0.0328 41.1 3.5792 39.1072 5.5712L32.368 12.3064L29.1984 14.4L19.9984 0H36.6968ZM8.75521 13.432C8.46006 13.7271 8.22592 14.0774 8.06618 14.463C7.90644 14.8486 7.82422 15.2618 7.82422 15.6792C7.82422 16.0966 7.90644 16.5098 8.06618 16.8954C8.22592 17.281 8.46006 17.6313 8.75521 17.9264L15.5016 24.6704C16.0982 25.2667 16.9073 25.6017 17.7508 25.6017C18.5944 25.6017 19.4034 25.2667 20 24.6704L18.7984 21.6L11.9984 14.4L8.75441 13.4304L8.75521 13.432Z" fill="#985184"/>
<path d="M0.891052 5.5712C-1.10175 3.5792 0.486252 0.0328 3.30225 0H19.9999L32.3687 12.3064C32.664 12.6015 32.8984 12.9519 33.0583 13.3377C33.2182 13.7234 33.3004 14.1369 33.3004 14.5544C33.3004 14.972 33.2182 15.3854 33.0583 15.7711C32.8984 16.1569 32.664 16.5073 32.3687 16.8024L24.4967 24.6688C23.9001 25.2647 23.0914 25.5993 22.2483 25.5993C21.4051 25.5993 20.5964 25.2647 19.9999 24.6688L0.891052 5.5712Z" fill="#1AD3BB"/>
<path d="M19.9995 24.6696C20.2949 24.3745 20.5292 24.0241 20.6891 23.6383C20.849 23.2526 20.9313 22.8392 20.9313 22.4216C20.9313 22.0041 20.849 21.5906 20.6891 21.2049C20.5292 20.8191 20.2949 20.4687 19.9995 20.1736L13.2523 13.4312C12.6557 12.8349 11.8467 12.4999 11.0031 12.4999C10.1596 12.4999 9.35053 12.8349 8.75391 13.4312L19.9995 24.6696ZM14.0955 5.8448L19.9995 0L27.3083 7.2496C26.4134 6.35555 25.2001 5.85336 23.9351 5.85336C22.6701 5.85336 21.4568 6.35555 20.5619 7.2496L18.0315 9.7776C17.5095 10.2993 16.8016 10.5924 16.0635 10.5924C15.3254 10.5924 14.6176 10.2993 14.0955 9.7776C13.8372 9.51943 13.6322 9.21288 13.4924 8.87548C13.3526 8.53808 13.2806 8.17643 13.2806 7.8112C13.2806 7.44597 13.3526 7.08432 13.4924 6.74692C13.6322 6.40952 13.8372 6.10297 14.0955 5.8448Z" fill="#005E7A"/>
</svg>
