<svg width="202" height="215" viewBox="0 0 202 215" fill="none" xmlns="http://www.w3.org/2000/svg">
<mask id="path-1-outside-1_926_270" maskUnits="userSpaceOnUse" x="0" y="0" width="202" height="215" fill="black">
<rect fill="white" width="202" height="215"/>
<path d="M71.6163 1C52.9238 1.04631 36.0249 4.35055 23.3263 10.1094C16.9548 12.9897 11.6199 16.4346 7.60848 20.731C3.64339 24.9793 1 30.218 1 35.9786L1.04631 82.8026C1.02429 82.9593 1.00884 83.1168 1 83.2747C1 83.8411 1 84.4076 1.04631 84.9277L1.14072 129.817C1.07232 130.096 1.02528 130.381 1 130.667C1 131.422 1.04631 132.226 1.1425 132.933L1.18882 180.325C1.19383 180.642 1.22541 180.957 1.28322 181.269C3.12326 192.031 12.8009 199.584 25.3089 204.824C37.8668 210.017 54.0566 213.038 71.7107 213.038C97.7189 213.038 120.377 206.996 133.075 195.902C134.162 195.95 135.247 195.996 136.331 195.996C140.108 195.996 143.884 195.667 147.566 195.006C148.55 194.83 149.471 194.397 150.233 193.75C150.996 193.104 151.574 192.267 151.908 191.324L154.929 182.828C156.53 182.251 158.105 181.605 159.65 180.891L167.769 184.762C168.677 185.199 169.685 185.385 170.689 185.302C171.693 185.219 172.657 184.87 173.481 184.29C179.618 179.947 184.999 174.614 189.295 168.43C189.866 167.611 190.21 166.655 190.292 165.661C190.375 164.666 190.193 163.667 189.766 162.765L185.897 154.6C186.65 153.089 187.265 151.484 187.877 149.926L196.374 146.905C197.316 146.57 198.154 145.992 198.8 145.23C199.447 144.467 199.88 143.547 200.056 142.562C200.67 138.834 201 135.104 201 131.328C201 127.551 200.67 123.823 200.056 120.141C199.888 119.149 199.459 118.218 198.812 117.446C198.165 116.675 197.324 116.089 196.376 115.751L187.879 112.73C187.303 111.144 186.657 109.586 185.943 108.057L189.814 99.8903C190.241 98.9882 190.422 97.9893 190.34 96.9946C190.257 95.9999 189.912 95.0447 189.342 94.2259C185.003 88.0695 179.638 82.7046 173.481 78.3655C172.657 77.7859 171.693 77.4366 170.689 77.3536C169.685 77.2706 168.677 77.457 167.769 77.8935L159.652 81.7642C158.107 81.0508 156.532 80.4053 154.931 79.8297L151.908 71.3331C151.574 70.3909 150.996 69.554 150.234 68.9073C149.472 68.2606 148.552 67.8273 147.568 67.6512C145.803 67.3192 144.022 67.0825 142.233 66.9423C142.281 56.2743 142.327 45.8433 142.375 35.9768C142.375 30.218 139.73 24.933 135.719 20.6829C131.753 16.4346 126.372 12.9416 119.999 10.0631C107.208 4.30424 90.3089 1 71.6163 1ZM71.6163 12.3288C88.9391 12.3288 104.564 15.5387 115.327 20.3997C120.708 22.8543 124.862 25.6865 127.457 28.4243C130.054 31.2102 131.045 33.6167 131.045 35.9768C131.045 38.337 130.054 40.7453 127.457 43.5294C124.862 46.2672 120.708 49.0994 115.327 51.554C104.564 56.4168 88.9391 59.6267 71.6163 59.5786C54.3399 59.5786 38.7164 56.3687 28.0004 51.5077C22.6192 49.0531 18.4653 46.2209 15.87 43.4831C13.3192 40.7453 12.3288 38.337 12.3288 35.9768C12.3288 33.6167 13.3192 31.2102 15.8682 28.4724C18.4653 25.6865 22.6192 22.8543 28.0004 20.4478C38.7146 15.585 54.3399 12.3751 71.6163 12.3288ZM12.3751 55.4728C15.5387 57.8792 19.2205 59.9562 23.3263 61.8443C36.0249 67.5568 52.9238 70.9074 71.6163 70.9074C90.3089 70.9555 107.208 67.6031 119.999 61.8443C124.107 60.0043 127.788 57.8792 130.95 55.5208C130.95 59.2971 130.95 62.9772 130.904 66.896C129.016 67.0385 127.079 67.2736 125.145 67.6512C124.161 67.827 123.24 68.2602 122.477 68.9069C121.715 69.5536 121.137 70.3907 120.802 71.3331L117.781 79.7816C116.176 80.3962 114.618 81.0107 113.061 81.7642L104.942 77.8935C104.034 77.457 103.026 77.2706 102.022 77.3536C101.017 77.4366 100.054 77.7859 99.2294 78.3655C93.093 82.7082 87.7118 88.0431 83.4172 94.2259C82.8464 95.0447 82.5021 95.9999 82.4192 96.9946C82.3363 97.9893 82.5178 98.9882 82.9451 99.8903L86.0606 106.452C85.5636 106.354 85.0555 106.322 84.5501 106.358C80.2497 106.744 75.9339 106.933 71.6163 106.924C54.3399 106.924 38.7164 103.667 28.0004 98.8055C22.6192 96.3972 18.4653 93.565 15.87 90.8272C13.6968 88.4671 12.6584 86.3919 12.3751 84.3612V55.4728ZM136.285 77.9879H136.331C138.362 77.9879 140.393 78.1304 142.421 78.3655L145.159 86.1069C145.457 86.9494 145.95 87.7094 146.598 88.3249C147.246 88.9403 148.031 89.3937 148.887 89.648C151.673 90.4977 154.411 91.6306 156.96 92.9986C157.745 93.4268 158.621 93.663 159.515 93.6878C160.409 93.7125 161.297 93.5252 162.104 93.1411L169.516 89.5999C172.678 92.1489 175.558 94.9811 178.059 98.1446L174.52 105.603C174.143 106.405 173.96 107.283 173.985 108.169C174.01 109.054 174.242 109.921 174.662 110.701C176.06 113.283 177.183 116.004 178.013 118.82C178.267 119.676 178.72 120.461 179.335 121.108C179.95 121.756 180.71 122.25 181.552 122.548L189.294 125.286C189.53 127.268 189.671 129.299 189.671 131.328C189.671 133.357 189.53 135.389 189.294 137.37L181.552 140.156C180.715 140.449 179.959 140.936 179.344 141.575C178.729 142.215 178.273 142.99 178.013 143.838C177.161 146.631 176.038 149.334 174.661 151.908C174.232 152.694 173.996 153.57 173.972 154.465C173.947 155.359 174.135 156.247 174.52 157.055L178.059 164.465C175.558 167.674 172.68 170.507 169.516 173.056L162.058 169.516C161.26 169.132 160.383 168.941 159.498 168.957C158.613 168.974 157.743 169.198 156.96 169.611C154.392 171.015 151.687 172.154 148.887 173.009C148.036 173.259 147.255 173.705 146.607 174.312C145.96 174.918 145.464 175.669 145.159 176.502L142.421 184.244C140.391 184.479 138.362 184.668 136.331 184.668C134.349 184.668 132.32 184.479 130.289 184.29L127.551 176.502C127.247 175.669 126.751 174.918 126.104 174.312C125.456 173.705 124.675 173.259 123.823 173.009C121.024 172.154 118.319 171.015 115.751 169.611C114.967 169.198 114.098 168.974 113.213 168.957C112.328 168.941 111.451 169.132 110.653 169.516L103.195 173.056C100.033 170.508 97.1525 167.676 94.6516 164.513L98.191 157.055C98.5677 156.253 98.7512 155.374 98.7268 154.489C98.7023 153.603 98.4706 152.736 98.0502 151.957C96.672 149.365 95.5492 146.646 94.6979 143.838C94.444 142.981 93.991 142.196 93.3758 141.548C92.7607 140.9 92.0009 140.406 91.1585 140.108L83.4172 137.37C83.1803 135.341 83.0395 133.358 83.0395 131.328C83.0395 129.297 83.1821 127.268 83.4172 125.286L91.1585 122.548C92.0007 122.25 92.7604 121.756 93.3755 121.108C93.9906 120.461 94.4438 119.676 94.6979 118.82C95.5476 115.988 96.6341 113.298 98.0502 110.701C98.4709 109.921 98.7029 109.054 98.7277 108.169C98.7524 107.283 98.5692 106.405 98.1927 105.603L94.6516 98.1446C97.1592 94.9756 100.026 92.1082 103.195 89.5999L110.606 93.1411C111.414 93.5252 112.301 93.7125 113.196 93.6878C114.09 93.663 114.965 93.4268 115.751 92.9986C118.338 91.6128 121.058 90.4903 123.87 89.648C124.718 89.3876 125.494 88.9315 126.133 88.3164C126.773 87.7013 127.26 86.9445 127.553 86.1069L130.339 78.3655C132.312 78.1222 134.297 77.9961 136.285 77.9879ZM12.4232 102.865C15.585 105.225 19.2205 107.302 23.3263 109.142C36.0713 114.901 52.9238 118.205 71.6163 118.253H73.362C73.0152 118.835 72.7757 119.475 72.6548 120.141C71.9939 123.823 71.7107 127.551 71.7107 131.328C71.7107 135.058 71.9939 138.834 72.6548 142.516C72.823 143.509 73.2528 144.439 73.9 145.21C74.5471 145.982 75.3882 146.567 76.3367 146.905L84.8333 149.926C85.3516 151.39 85.9662 152.806 86.627 154.222C85.7964 153.855 84.8898 153.693 83.9836 153.75C79.8725 154.135 75.7454 154.324 71.6163 154.317C54.3399 154.317 38.7627 151.059 28.0004 146.198C22.6192 143.791 18.4653 140.911 15.87 138.173C13.8393 136.002 12.8009 134.067 12.4695 132.131L12.4232 102.865ZM12.4695 150.257C15.6331 152.617 19.2668 154.694 23.3263 156.534C36.0249 162.293 52.9238 165.597 71.6163 165.646C75.2982 165.646 78.932 165.503 82.4731 165.268C82.4671 166.392 82.7957 167.493 83.4172 168.43C87.7118 174.614 93.093 179.947 99.2775 184.29C100.096 184.861 101.052 185.205 102.046 185.288C103.041 185.371 104.04 185.189 104.942 184.762L113.061 180.891C114.618 181.6 116.176 182.261 117.781 182.828L120.613 190.804C110.04 196.894 92.0545 201.709 71.7107 201.709C55.3783 201.709 40.414 198.829 29.6997 194.345C19.1724 189.954 13.4617 184.149 12.5176 179.618L12.4695 150.257Z"/>
</mask>
<path d="M71.6163 1C52.9238 1.04631 36.0249 4.35055 23.3263 10.1094C16.9548 12.9897 11.6199 16.4346 7.60848 20.731C3.64339 24.9793 1 30.218 1 35.9786L1.04631 82.8026C1.02429 82.9593 1.00884 83.1168 1 83.2747C1 83.8411 1 84.4076 1.04631 84.9277L1.14072 129.817C1.07232 130.096 1.02528 130.381 1 130.667C1 131.422 1.04631 132.226 1.1425 132.933L1.18882 180.325C1.19383 180.642 1.22541 180.957 1.28322 181.269C3.12326 192.031 12.8009 199.584 25.3089 204.824C37.8668 210.017 54.0566 213.038 71.7107 213.038C97.7189 213.038 120.377 206.996 133.075 195.902C134.162 195.95 135.247 195.996 136.331 195.996C140.108 195.996 143.884 195.667 147.566 195.006C148.55 194.83 149.471 194.397 150.233 193.75C150.996 193.104 151.574 192.267 151.908 191.324L154.929 182.828C156.53 182.251 158.105 181.605 159.65 180.891L167.769 184.762C168.677 185.199 169.685 185.385 170.689 185.302C171.693 185.219 172.657 184.87 173.481 184.29C179.618 179.947 184.999 174.614 189.295 168.43C189.866 167.611 190.21 166.655 190.292 165.661C190.375 164.666 190.193 163.667 189.766 162.765L185.897 154.6C186.65 153.089 187.265 151.484 187.877 149.926L196.374 146.905C197.316 146.57 198.154 145.992 198.8 145.23C199.447 144.467 199.88 143.547 200.056 142.562C200.67 138.834 201 135.104 201 131.328C201 127.551 200.67 123.823 200.056 120.141C199.888 119.149 199.459 118.218 198.812 117.446C198.165 116.675 197.324 116.089 196.376 115.751L187.879 112.73C187.303 111.144 186.657 109.586 185.943 108.057L189.814 99.8903C190.241 98.9882 190.422 97.9893 190.34 96.9946C190.257 95.9999 189.912 95.0447 189.342 94.2259C185.003 88.0695 179.638 82.7046 173.481 78.3655C172.657 77.7859 171.693 77.4366 170.689 77.3536C169.685 77.2706 168.677 77.457 167.769 77.8935L159.652 81.7642C158.107 81.0508 156.532 80.4053 154.931 79.8297L151.908 71.3331C151.574 70.3909 150.996 69.554 150.234 68.9073C149.472 68.2606 148.552 67.8273 147.568 67.6512C145.803 67.3192 144.022 67.0825 142.233 66.9423C142.281 56.2743 142.327 45.8433 142.375 35.9768C142.375 30.218 139.73 24.933 135.719 20.6829C131.753 16.4346 126.372 12.9416 119.999 10.0631C107.208 4.30424 90.3089 1 71.6163 1ZM71.6163 12.3288C88.9391 12.3288 104.564 15.5387 115.327 20.3997C120.708 22.8543 124.862 25.6865 127.457 28.4243C130.054 31.2102 131.045 33.6167 131.045 35.9768C131.045 38.337 130.054 40.7453 127.457 43.5294C124.862 46.2672 120.708 49.0994 115.327 51.554C104.564 56.4168 88.9391 59.6267 71.6163 59.5786C54.3399 59.5786 38.7164 56.3687 28.0004 51.5077C22.6192 49.0531 18.4653 46.2209 15.87 43.4831C13.3192 40.7453 12.3288 38.337 12.3288 35.9768C12.3288 33.6167 13.3192 31.2102 15.8682 28.4724C18.4653 25.6865 22.6192 22.8543 28.0004 20.4478C38.7146 15.585 54.3399 12.3751 71.6163 12.3288ZM12.3751 55.4728C15.5387 57.8792 19.2205 59.9562 23.3263 61.8443C36.0249 67.5568 52.9238 70.9074 71.6163 70.9074C90.3089 70.9555 107.208 67.6031 119.999 61.8443C124.107 60.0043 127.788 57.8792 130.95 55.5208C130.95 59.2971 130.95 62.9772 130.904 66.896C129.016 67.0385 127.079 67.2736 125.145 67.6512C124.161 67.827 123.24 68.2602 122.477 68.9069C121.715 69.5536 121.137 70.3907 120.802 71.3331L117.781 79.7816C116.176 80.3962 114.618 81.0107 113.061 81.7642L104.942 77.8935C104.034 77.457 103.026 77.2706 102.022 77.3536C101.017 77.4366 100.054 77.7859 99.2294 78.3655C93.093 82.7082 87.7118 88.0431 83.4172 94.2259C82.8464 95.0447 82.5021 95.9999 82.4192 96.9946C82.3363 97.9893 82.5178 98.9882 82.9451 99.8903L86.0606 106.452C85.5636 106.354 85.0555 106.322 84.5501 106.358C80.2497 106.744 75.9339 106.933 71.6163 106.924C54.3399 106.924 38.7164 103.667 28.0004 98.8055C22.6192 96.3972 18.4653 93.565 15.87 90.8272C13.6968 88.4671 12.6584 86.3919 12.3751 84.3612V55.4728ZM136.285 77.9879H136.331C138.362 77.9879 140.393 78.1304 142.421 78.3655L145.159 86.1069C145.457 86.9494 145.95 87.7094 146.598 88.3249C147.246 88.9403 148.031 89.3937 148.887 89.648C151.673 90.4977 154.411 91.6306 156.96 92.9986C157.745 93.4268 158.621 93.663 159.515 93.6878C160.409 93.7125 161.297 93.5252 162.104 93.1411L169.516 89.5999C172.678 92.1489 175.558 94.9811 178.059 98.1446L174.52 105.603C174.143 106.405 173.96 107.283 173.985 108.169C174.01 109.054 174.242 109.921 174.662 110.701C176.06 113.283 177.183 116.004 178.013 118.82C178.267 119.676 178.72 120.461 179.335 121.108C179.95 121.756 180.71 122.25 181.552 122.548L189.294 125.286C189.53 127.268 189.671 129.299 189.671 131.328C189.671 133.357 189.53 135.389 189.294 137.37L181.552 140.156C180.715 140.449 179.959 140.936 179.344 141.575C178.729 142.215 178.273 142.99 178.013 143.838C177.161 146.631 176.038 149.334 174.661 151.908C174.232 152.694 173.996 153.57 173.972 154.465C173.947 155.359 174.135 156.247 174.52 157.055L178.059 164.465C175.558 167.674 172.68 170.507 169.516 173.056L162.058 169.516C161.26 169.132 160.383 168.941 159.498 168.957C158.613 168.974 157.743 169.198 156.96 169.611C154.392 171.015 151.687 172.154 148.887 173.009C148.036 173.259 147.255 173.705 146.607 174.312C145.96 174.918 145.464 175.669 145.159 176.502L142.421 184.244C140.391 184.479 138.362 184.668 136.331 184.668C134.349 184.668 132.32 184.479 130.289 184.29L127.551 176.502C127.247 175.669 126.751 174.918 126.104 174.312C125.456 173.705 124.675 173.259 123.823 173.009C121.024 172.154 118.319 171.015 115.751 169.611C114.967 169.198 114.098 168.974 113.213 168.957C112.328 168.941 111.451 169.132 110.653 169.516L103.195 173.056C100.033 170.508 97.1525 167.676 94.6516 164.513L98.191 157.055C98.5677 156.253 98.7512 155.374 98.7268 154.489C98.7023 153.603 98.4706 152.736 98.0502 151.957C96.672 149.365 95.5492 146.646 94.6979 143.838C94.444 142.981 93.991 142.196 93.3758 141.548C92.7607 140.9 92.0009 140.406 91.1585 140.108L83.4172 137.37C83.1803 135.341 83.0395 133.358 83.0395 131.328C83.0395 129.297 83.1821 127.268 83.4172 125.286L91.1585 122.548C92.0007 122.25 92.7604 121.756 93.3755 121.108C93.9906 120.461 94.4438 119.676 94.6979 118.82C95.5476 115.988 96.6341 113.298 98.0502 110.701C98.4709 109.921 98.7029 109.054 98.7277 108.169C98.7524 107.283 98.5692 106.405 98.1927 105.603L94.6516 98.1446C97.1592 94.9756 100.026 92.1082 103.195 89.5999L110.606 93.1411C111.414 93.5252 112.301 93.7125 113.196 93.6878C114.09 93.663 114.965 93.4268 115.751 92.9986C118.338 91.6128 121.058 90.4903 123.87 89.648C124.718 89.3876 125.494 88.9315 126.133 88.3164C126.773 87.7013 127.26 86.9445 127.553 86.1069L130.339 78.3655C132.312 78.1222 134.297 77.9961 136.285 77.9879ZM12.4232 102.865C15.585 105.225 19.2205 107.302 23.3263 109.142C36.0713 114.901 52.9238 118.205 71.6163 118.253H73.362C73.0152 118.835 72.7757 119.475 72.6548 120.141C71.9939 123.823 71.7107 127.551 71.7107 131.328C71.7107 135.058 71.9939 138.834 72.6548 142.516C72.823 143.509 73.2528 144.439 73.9 145.21C74.5471 145.982 75.3882 146.567 76.3367 146.905L84.8333 149.926C85.3516 151.39 85.9662 152.806 86.627 154.222C85.7964 153.855 84.8898 153.693 83.9836 153.75C79.8725 154.135 75.7454 154.324 71.6163 154.317C54.3399 154.317 38.7627 151.059 28.0004 146.198C22.6192 143.791 18.4653 140.911 15.87 138.173C13.8393 136.002 12.8009 134.067 12.4695 132.131L12.4232 102.865ZM12.4695 150.257C15.6331 152.617 19.2668 154.694 23.3263 156.534C36.0249 162.293 52.9238 165.597 71.6163 165.646C75.2982 165.646 78.932 165.503 82.4731 165.268C82.4671 166.392 82.7957 167.493 83.4172 168.43C87.7118 174.614 93.093 179.947 99.2775 184.29C100.096 184.861 101.052 185.205 102.046 185.288C103.041 185.371 104.04 185.189 104.942 184.762L113.061 180.891C114.618 181.6 116.176 182.261 117.781 182.828L120.613 190.804C110.04 196.894 92.0545 201.709 71.7107 201.709C55.3783 201.709 40.414 198.829 29.6997 194.345C19.1724 189.954 13.4617 184.149 12.5176 179.618L12.4695 150.257Z" fill="#00BFBB"/>
<path d="M71.6163 1C52.9238 1.04631 36.0249 4.35055 23.3263 10.1094C16.9548 12.9897 11.6199 16.4346 7.60848 20.731C3.64339 24.9793 1 30.218 1 35.9786L1.04631 82.8026C1.02429 82.9593 1.00884 83.1168 1 83.2747C1 83.8411 1 84.4076 1.04631 84.9277L1.14072 129.817C1.07232 130.096 1.02528 130.381 1 130.667C1 131.422 1.04631 132.226 1.1425 132.933L1.18882 180.325C1.19383 180.642 1.22541 180.957 1.28322 181.269C3.12326 192.031 12.8009 199.584 25.3089 204.824C37.8668 210.017 54.0566 213.038 71.7107 213.038C97.7189 213.038 120.377 206.996 133.075 195.902C134.162 195.95 135.247 195.996 136.331 195.996C140.108 195.996 143.884 195.667 147.566 195.006C148.55 194.83 149.471 194.397 150.233 193.75C150.996 193.104 151.574 192.267 151.908 191.324L154.929 182.828C156.53 182.251 158.105 181.605 159.65 180.891L167.769 184.762C168.677 185.199 169.685 185.385 170.689 185.302C171.693 185.219 172.657 184.87 173.481 184.29C179.618 179.947 184.999 174.614 189.295 168.43C189.866 167.611 190.21 166.655 190.292 165.661C190.375 164.666 190.193 163.667 189.766 162.765L185.897 154.6C186.65 153.089 187.265 151.484 187.877 149.926L196.374 146.905C197.316 146.57 198.154 145.992 198.8 145.23C199.447 144.467 199.88 143.547 200.056 142.562C200.67 138.834 201 135.104 201 131.328C201 127.551 200.67 123.823 200.056 120.141C199.888 119.149 199.459 118.218 198.812 117.446C198.165 116.675 197.324 116.089 196.376 115.751L187.879 112.73C187.303 111.144 186.657 109.586 185.943 108.057L189.814 99.8903C190.241 98.9882 190.422 97.9893 190.34 96.9946C190.257 95.9999 189.912 95.0447 189.342 94.2259C185.003 88.0695 179.638 82.7046 173.481 78.3655C172.657 77.7859 171.693 77.4366 170.689 77.3536C169.685 77.2706 168.677 77.457 167.769 77.8935L159.652 81.7642C158.107 81.0508 156.532 80.4053 154.931 79.8297L151.908 71.3331C151.574 70.3909 150.996 69.554 150.234 68.9073C149.472 68.2606 148.552 67.8273 147.568 67.6512C145.803 67.3192 144.022 67.0825 142.233 66.9423C142.281 56.2743 142.327 45.8433 142.375 35.9768C142.375 30.218 139.73 24.933 135.719 20.6829C131.753 16.4346 126.372 12.9416 119.999 10.0631C107.208 4.30424 90.3089 1 71.6163 1ZM71.6163 12.3288C88.9391 12.3288 104.564 15.5387 115.327 20.3997C120.708 22.8543 124.862 25.6865 127.457 28.4243C130.054 31.2102 131.045 33.6167 131.045 35.9768C131.045 38.337 130.054 40.7453 127.457 43.5294C124.862 46.2672 120.708 49.0994 115.327 51.554C104.564 56.4168 88.9391 59.6267 71.6163 59.5786C54.3399 59.5786 38.7164 56.3687 28.0004 51.5077C22.6192 49.0531 18.4653 46.2209 15.87 43.4831C13.3192 40.7453 12.3288 38.337 12.3288 35.9768C12.3288 33.6167 13.3192 31.2102 15.8682 28.4724C18.4653 25.6865 22.6192 22.8543 28.0004 20.4478C38.7146 15.585 54.3399 12.3751 71.6163 12.3288ZM12.3751 55.4728C15.5387 57.8792 19.2205 59.9562 23.3263 61.8443C36.0249 67.5568 52.9238 70.9074 71.6163 70.9074C90.3089 70.9555 107.208 67.6031 119.999 61.8443C124.107 60.0043 127.788 57.8792 130.95 55.5208C130.95 59.2971 130.95 62.9772 130.904 66.896C129.016 67.0385 127.079 67.2736 125.145 67.6512C124.161 67.827 123.24 68.2602 122.477 68.9069C121.715 69.5536 121.137 70.3907 120.802 71.3331L117.781 79.7816C116.176 80.3962 114.618 81.0107 113.061 81.7642L104.942 77.8935C104.034 77.457 103.026 77.2706 102.022 77.3536C101.017 77.4366 100.054 77.7859 99.2294 78.3655C93.093 82.7082 87.7118 88.0431 83.4172 94.2259C82.8464 95.0447 82.5021 95.9999 82.4192 96.9946C82.3363 97.9893 82.5178 98.9882 82.9451 99.8903L86.0606 106.452C85.5636 106.354 85.0555 106.322 84.5501 106.358C80.2497 106.744 75.9339 106.933 71.6163 106.924C54.3399 106.924 38.7164 103.667 28.0004 98.8055C22.6192 96.3972 18.4653 93.565 15.87 90.8272C13.6968 88.4671 12.6584 86.3919 12.3751 84.3612V55.4728ZM136.285 77.9879H136.331C138.362 77.9879 140.393 78.1304 142.421 78.3655L145.159 86.1069C145.457 86.9494 145.95 87.7094 146.598 88.3249C147.246 88.9403 148.031 89.3937 148.887 89.648C151.673 90.4977 154.411 91.6306 156.96 92.9986C157.745 93.4268 158.621 93.663 159.515 93.6878C160.409 93.7125 161.297 93.5252 162.104 93.1411L169.516 89.5999C172.678 92.1489 175.558 94.9811 178.059 98.1446L174.52 105.603C174.143 106.405 173.96 107.283 173.985 108.169C174.01 109.054 174.242 109.921 174.662 110.701C176.06 113.283 177.183 116.004 178.013 118.82C178.267 119.676 178.72 120.461 179.335 121.108C179.95 121.756 180.71 122.25 181.552 122.548L189.294 125.286C189.53 127.268 189.671 129.299 189.671 131.328C189.671 133.357 189.53 135.389 189.294 137.37L181.552 140.156C180.715 140.449 179.959 140.936 179.344 141.575C178.729 142.215 178.273 142.99 178.013 143.838C177.161 146.631 176.038 149.334 174.661 151.908C174.232 152.694 173.996 153.57 173.972 154.465C173.947 155.359 174.135 156.247 174.52 157.055L178.059 164.465C175.558 167.674 172.68 170.507 169.516 173.056L162.058 169.516C161.26 169.132 160.383 168.941 159.498 168.957C158.613 168.974 157.743 169.198 156.96 169.611C154.392 171.015 151.687 172.154 148.887 173.009C148.036 173.259 147.255 173.705 146.607 174.312C145.96 174.918 145.464 175.669 145.159 176.502L142.421 184.244C140.391 184.479 138.362 184.668 136.331 184.668C134.349 184.668 132.32 184.479 130.289 184.29L127.551 176.502C127.247 175.669 126.751 174.918 126.104 174.312C125.456 173.705 124.675 173.259 123.823 173.009C121.024 172.154 118.319 171.015 115.751 169.611C114.967 169.198 114.098 168.974 113.213 168.957C112.328 168.941 111.451 169.132 110.653 169.516L103.195 173.056C100.033 170.508 97.1525 167.676 94.6516 164.513L98.191 157.055C98.5677 156.253 98.7512 155.374 98.7268 154.489C98.7023 153.603 98.4706 152.736 98.0502 151.957C96.672 149.365 95.5492 146.646 94.6979 143.838C94.444 142.981 93.991 142.196 93.3758 141.548C92.7607 140.9 92.0009 140.406 91.1585 140.108L83.4172 137.37C83.1803 135.341 83.0395 133.358 83.0395 131.328C83.0395 129.297 83.1821 127.268 83.4172 125.286L91.1585 122.548C92.0007 122.25 92.7604 121.756 93.3755 121.108C93.9906 120.461 94.4438 119.676 94.6979 118.82C95.5476 115.988 96.6341 113.298 98.0502 110.701C98.4709 109.921 98.7029 109.054 98.7277 108.169C98.7524 107.283 98.5692 106.405 98.1927 105.603L94.6516 98.1446C97.1592 94.9756 100.026 92.1082 103.195 89.5999L110.606 93.1411C111.414 93.5252 112.301 93.7125 113.196 93.6878C114.09 93.663 114.965 93.4268 115.751 92.9986C118.338 91.6128 121.058 90.4903 123.87 89.648C124.718 89.3876 125.494 88.9315 126.133 88.3164C126.773 87.7013 127.26 86.9445 127.553 86.1069L130.339 78.3655C132.312 78.1222 134.297 77.9961 136.285 77.9879ZM12.4232 102.865C15.585 105.225 19.2205 107.302 23.3263 109.142C36.0713 114.901 52.9238 118.205 71.6163 118.253H73.362C73.0152 118.835 72.7757 119.475 72.6548 120.141C71.9939 123.823 71.7107 127.551 71.7107 131.328C71.7107 135.058 71.9939 138.834 72.6548 142.516C72.823 143.509 73.2528 144.439 73.9 145.21C74.5471 145.982 75.3882 146.567 76.3367 146.905L84.8333 149.926C85.3516 151.39 85.9662 152.806 86.627 154.222C85.7964 153.855 84.8898 153.693 83.9836 153.75C79.8725 154.135 75.7454 154.324 71.6163 154.317C54.3399 154.317 38.7627 151.059 28.0004 146.198C22.6192 143.791 18.4653 140.911 15.87 138.173C13.8393 136.002 12.8009 134.067 12.4695 132.131L12.4232 102.865ZM12.4695 150.257C15.6331 152.617 19.2668 154.694 23.3263 156.534C36.0249 162.293 52.9238 165.597 71.6163 165.646C75.2982 165.646 78.932 165.503 82.4731 165.268C82.4671 166.392 82.7957 167.493 83.4172 168.43C87.7118 174.614 93.093 179.947 99.2775 184.29C100.096 184.861 101.052 185.205 102.046 185.288C103.041 185.371 104.04 185.189 104.942 184.762L113.061 180.891C114.618 181.6 116.176 182.261 117.781 182.828L120.613 190.804C110.04 196.894 92.0545 201.709 71.7107 201.709C55.3783 201.709 40.414 198.829 29.6997 194.345C19.1724 189.954 13.4617 184.149 12.5176 179.618L12.4695 150.257Z" stroke="#00BFBB" stroke-width="2" mask="url(#path-1-outside-1_926_270)"/>
<path d="M160.002 131.282V131.283C160.002 144.412 149.416 154.951 136.285 154.951C123.109 154.951 112.571 144.412 112.571 131.283L112.571 131.281C112.558 128.164 113.162 125.074 114.349 122.191C115.536 119.308 117.282 116.689 119.487 114.484C121.691 112.279 124.311 110.533 127.193 109.346C130.076 108.159 133.166 107.554 136.283 107.567L136.287 107.567C139.404 107.558 142.492 108.165 145.373 109.354C148.254 110.542 150.872 112.288 153.076 114.492C155.28 116.696 157.027 119.314 158.215 122.196C159.404 125.077 160.011 128.165 160.002 131.282ZM136.285 95.2383C116.468 95.2383 100.242 111.416 100.242 131.283C100.242 151.103 116.468 167.28 136.285 167.28C156.103 167.28 172.331 151.103 172.331 131.283C172.331 111.416 156.103 95.2383 136.285 95.2383ZM158.678 122.005C159.891 124.947 160.511 128.101 160.502 131.283H112.071C112.058 128.1 112.675 124.945 113.887 122.001C115.099 119.057 116.882 116.382 119.133 114.131C121.384 111.879 124.059 110.096 127.003 108.884C129.947 107.671 133.102 107.054 136.285 107.067C139.468 107.058 142.621 107.678 145.564 108.891C148.506 110.105 151.179 111.888 153.43 114.139C155.68 116.389 157.464 119.063 158.678 122.005Z" fill="#00BFBB" stroke="#00BFBB"/>
</svg>
