<svg width="42" height="42" viewBox="0 0 42 42" fill="none" xmlns="http://www.w3.org/2000/svg">
<path d="M0 4C0 2.93913 0.421427 1.92172 1.17157 1.17157C1.92172 0.421427 2.93913 0 4 0H21V17C21 18.0609 20.5786 19.0783 19.8284 19.8284C19.0783 20.5786 18.0609 21 17 21H0V4Z" fill="#985184"/>
<path d="M0 31C0 29.9391 0.421427 28.9217 1.17157 28.1716C1.92172 27.4214 2.93913 27 4 27H15V38C15 39.0609 14.5786 40.0783 13.8284 40.8284C13.0783 41.5786 12.0609 42 11 42H0V31Z" fill="#088BF5"/>
<path d="M21 42H25C26.0609 42 27.0783 41.5786 27.8284 40.8284C28.5786 40.0783 29 39.0609 29 38V27H25C23.9391 27 22.9217 27.4214 22.1716 28.1716C21.4214 28.9217 21 29.9391 21 31V42Z" fill="#1AD3BB"/>
<path d="M27 13V17C27 18.0609 27.4214 19.0783 28.1716 19.8284C28.9217 20.5786 29.9391 21 31 21H42V17C42 15.9391 41.5786 14.9217 40.8284 14.1716C40.0783 13.4214 39.0609 13 38 13H27Z" fill="#F9464C"/>
<path d="M27 0V4C27 5.06087 27.4214 6.07828 28.1716 6.82843C28.9217 7.57857 29.9391 8 31 8H42V4C42 2.93913 41.5786 1.92172 40.8284 1.17157C40.0783 0.421427 39.0609 0 38 0H27Z" fill="#FC868B"/>
<path d="M34 42H38C39.0609 42 40.0783 41.5786 40.8284 40.8284C41.5786 40.0783 42 39.0609 42 38V27H38C36.9391 27 35.9217 27.4214 35.1716 28.1716C34.4214 28.9217 34 29.9391 34 31V42Z" fill="#03AF89"/>
</svg>
