<svg width="40" height="28" viewBox="0 0 40 28" fill="none" xmlns="http://www.w3.org/2000/svg">
<path d="M7.60078 0L4.80078 22.4H9.61598C9.7161 23.7065 10.3058 24.9271 11.2671 25.8175C12.2284 26.708 13.4904 27.2027 14.8008 27.2027C16.1111 27.2027 17.3732 26.708 18.3345 25.8175C19.2958 24.9271 19.8855 23.7065 19.9856 22.4H20.0008C20.0008 23.673 20.5065 24.8939 21.4067 25.7941C22.3068 26.6943 23.5277 27.2 24.8008 27.2C26.0738 27.2 27.2947 26.6943 28.1949 25.7941C29.0951 24.8939 29.6008 23.673 29.6008 22.4H29.616C29.7161 23.7065 30.3058 24.9271 31.2671 25.8175C32.2284 26.708 33.4904 27.2027 34.8008 27.2027C36.1111 27.2027 37.3732 26.708 38.3345 25.8175C39.2958 24.9271 39.8855 23.7065 39.9856 22.4H40.0008V21.6L39.9648 21.3816C39.9525 21.2782 39.9371 21.1752 39.9184 21.0728L39.9 20.9784L39.884 20.8984L36.8464 2.6744C36.722 1.92721 36.3365 1.24838 35.7586 0.758667C35.1807 0.268958 34.4479 0.000127822 33.6904 0H7.60078Z" fill="#985184"/>
<path d="M11.2 2.47735e-09L9.6 22.4C9.6 23.673 9.09429 24.8939 8.19411 25.7941C7.29394 26.6943 6.07304 27.2 4.8 27.2C3.52696 27.2 2.30606 26.6943 1.40589 25.7941C0.505713 24.8939 0 23.673 0 22.4L0 21.6L2.7952 2.7312C2.90764 1.972 3.28919 1.27849 3.87029 0.777134C4.45138 0.275778 5.19332 -3.01824e-05 5.9608 2.47735e-09H11.2ZM28 2.47735e-09L29.6 22.4C29.6 23.673 29.0943 24.8939 28.1941 25.7941C27.2939 26.6943 26.073 27.2 24.8 27.2C23.527 27.2 22.3061 26.6943 21.4059 25.7941C20.5057 24.8939 20 23.673 20 22.4V2.47735e-09H28Z" fill="#FBB945"/>
<path d="M9.6 22.3984C9.6 23.6715 9.09429 24.8924 8.19411 25.7926C7.29394 26.6927 6.07304 27.1984 4.8 27.1984C3.52696 27.1984 2.30606 26.6927 1.40589 25.7926C0.505713 24.8924 0 23.6715 0 22.3984H9.6ZM29.6 22.3984C29.6 23.6715 29.0943 24.8924 28.1941 25.7926C27.2939 26.6927 26.073 27.1984 24.8 27.1984C23.527 27.1984 22.3061 26.6927 21.4059 25.7926C20.5057 24.8924 20 23.6715 20 22.3984H29.6Z" fill="#F78613"/>
<path d="M9.61719 22.3984C9.71854 23.704 10.3087 24.9232 11.2698 25.8126C12.2309 26.7019 13.4921 27.196 14.8016 27.196C16.111 27.196 17.3723 26.7019 18.3334 25.8126C19.2945 24.9232 19.8846 23.704 19.986 22.3984H9.61719ZM29.6172 22.3984C29.7185 23.704 30.3087 24.9232 31.2698 25.8126C32.2309 26.7019 33.4921 27.196 34.8016 27.196C36.111 27.196 37.3723 26.7019 38.3334 25.8126C39.2945 24.9232 39.8846 23.704 39.986 22.3984H29.6172Z" fill="#712258"/>
</svg>
