<svg width="40" height="40" viewBox="0 0 40 40" fill="none" xmlns="http://www.w3.org/2000/svg">
<mask id="mask0_952_48" style="mask-type:luminance" maskUnits="userSpaceOnUse" x="0" y="0" width="40" height="40">
<path d="M0 0H40V40H0V0Z" fill="white"/>
</mask>
<g mask="url(#mask0_952_48)">
<path d="M20.8015 27.6012C20.8015 27.6012 20.1375 26.0012 20.0039 25.8676C36.4055 17.9956 38.8183 23.0356 39.1559 25.1036C39.2103 25.438 39.1599 25.778 39.0567 26.1012C38.6788 27.2814 38.1913 28.4237 37.6007 29.5132C36.4007 30.7132 29.6007 30.8012 29.6007 30.8012L20.8015 27.6012Z" fill="#144496"/>
<path d="M16.7991 11.2019L20.0023 14.1355C3.60071 22.0075 1.18791 16.9675 0.850314 14.8995C0.795914 14.5651 0.846314 14.2251 0.949514 13.9019C1.25811 12.9371 1.64002 11.9973 2.09191 11.0907C5.36951 4.51708 11.5999 8.80188 11.5999 8.80188L16.7991 11.2019Z" fill="#1A6F66"/>
<path d="M0.949514 26.1018C0.846314 25.7786 0.795914 25.4386 0.850314 25.1042C1.18791 23.0354 3.60071 17.9954 20.0023 25.8682C31.3599 31.3202 36.0103 30.5802 37.9079 28.9226C34.6287 35.4898 27.8423 40.0018 20.0023 40.0018C11.0839 40.0018 3.52871 34.1642 0.949514 26.1018Z" fill="#2EBCFA"/>
<path d="M39.0561 13.9C39.1593 14.2232 39.2097 14.5632 39.1553 14.8976C38.8177 16.9664 36.4049 22.0064 20.0033 14.1336C8.64566 8.6816 3.99526 9.4216 2.09766 11.0792C5.37686 4.512 12.1633 0 20.0033 0C28.9209 0 36.4761 5.8376 39.0561 13.9Z" fill="#1AD3BB"/>
</g>
</svg>
